<?xml version="1.0" encoding="utf-8"?>
<!-- Generator: Adobe Illustrator 16.0.0, SVG Export Plug-In . SVG Version: 6.00 Build 0)  -->
<!DOCTYPE svg PUBLIC "-//W3C//DTD SVG 1.1//EN" "http://www.w3.org/Graphics/SVG/1.1/DTD/svg11.dtd">
<svg version="1.1" id="Layer_1" xmlns="http://www.w3.org/2000/svg" xmlns:xlink="http://www.w3.org/1999/xlink" x="0px" y="0px"
	 width="8009px" height="1079.86px" viewBox="0 0 8009 1079.86" enable-background="new 0 0 8009 1079.86" xml:space="preserve">
<g>
	<defs>
		<rect id="SVGID_1_" y="-0.005" width="8008.997" height="1079.865"/>
	</defs>
	<clipPath id="SVGID_2_">
		<use xlink:href="#SVGID_1_"  overflow="visible"/>
	</clipPath>
</g>
<g>
	<defs>
		<rect id="SVGID_3_" y="-0.005" width="8008.999" height="1079.865"/>
	</defs>
	<clipPath id="SVGID_4_">
		<use xlink:href="#SVGID_3_"  overflow="visible"/>
	</clipPath>
	<path clip-path="url(#SVGID_4_)" fill="none" stroke="#F3A39F" stroke-miterlimit="10" stroke-dasharray="8,4" d="
		M1412.155,542.777c0,0,130.979-29.872,296.425,95.743c36.973,28.072,98.549,40.73,143.336,43.998
		c78.694,5.742,141.965-25.784,196.009-81.112c47.536-48.664,96.92-95.975,137.886-150.521
		c21.366-28.449,39.976-59.101,53.637-92.009c13.692-32.983,23.097-67.664,41.269-98.686
		c37.076-63.297,101.746-82.777,171.521-90.423c50.003-5.48,100.838,2.152,147.123,21.809
		c35.095,14.904,63.991,40.116,95.438,61.053c28.006,18.646,58.984,34.131,89.765,47.659
		c64.603,28.393,133.639,42.426,203.165,52.532c85.022,22.978,133.277,53.617,186.128,157.021
		c45.192,93.446,193.787,381.445,335.489,173.108c33.444-49.172,56.914-106.865,85.281-159.072
		c27.452-50.523,56.523-101.902,95.462-144.621c28.047-30.771,64.202-58.787,107.535-60.259c65.06-2.21,116.399,53.462,161.936,92.9
		c27.305,23.648,54.896,47.812,87.743,63.531c104.03,49.782,231.963-0.58,329.873-41.417
		c130.213-45.957,258.895-87.319,258.895-87.319s90.383-34.468,115.658,48.255c28.342,84.256,106.469,362.298,106.469,362.298
		s72.766,302.553,382.979,152.425c89.072-45.154,178.499-89.614,267.836-134.241c93.181-46.548,186.083-93.746,279.72-139.371
		c116.734-56.88,216.272-157.833,305.721-249.536c58.152-59.619,125.979-138.071,214.136-147.995
		c43.049-4.847,84.095,10.673,118.771,35.436c24.535,17.521,46.055,39.064,65.596,61.93c26.145,30.593,50.023,61.077,67.094,97.718
		c10.826,23.24,21.787,46.446,33.139,69.433c24.668,49.951,52.243,99.034,88.523,141.589
		c56.496,66.269,132.456,108.649,219.295,118.74c68.17,4.595,179.234,6.893,227.488-121.787
		c12.006-32.011,15.916-68.295,25.195-101.261c10.608-37.687,23.575-75.669,44.547-108.984
		c19.051-30.262,45.849-56.348,81.364-65.325c46.604-11.78,95.394,6.694,135.858,28.9c62.229,34.15,115.294,80.09,181.927,106.63
		c51.692,20.589,106.164,33.689,161.368,40.322c82.54,9.918,166.365,5.635,248.295-7.517"/>
</g>
</svg>
